<svg width="46" height="59" viewBox="0 0 46 59" xmlns="http://www.w3.org/2000/svg"><path fill-rule="evenodd" clip-rule="evenodd" d="M0 59V24.37c0-2.834 2.288-5.13 5.111-5.13v-5.131a2.561 2.561 0 0 1 2.556-2.566h2.555V1.284A1.28 1.28 0 0 1 11.5 0a1.28 1.28 0 0 1 1.278 1.283v10.26h2.555a2.562 2.562 0 0 1 2.556 2.566v5.13c2.823 0 5.111 2.297 5.111 5.13V34.63h8.944v-7.695h5.112v-3.848h7.666v3.848H46V59H0zm15.333-43.609a1.28 1.28 0 0 0-1.277-1.282H8.944a1.28 1.28 0 0 0-1.277 1.282v3.848h7.666v-3.848zm5.111 8.979a2.561 2.561 0 0 0-2.555-2.566H5.11a2.561 2.561 0 0 0-2.555 2.566v32.065h17.888V24.37zm11.5 12.826H23v19.239h8.944v-19.24zm11.5-7.696H34.5v26.935h8.944V29.5zm-5.11 3.848h1.277a1.28 1.28 0 0 1 1.278 1.282v1.283a1.28 1.28 0 0 1-1.278 1.283h-1.278a1.279 1.279 0 0 1-1.277-1.283V34.63c0-.709.57-1.282 1.277-1.282zm0 7.696h1.277c.707 0 1.278.573 1.278 1.282v1.283c0 .709-.571 1.282-1.278 1.282h-1.278a1.279 1.279 0 0 1-1.277-1.282v-1.283c0-.71.57-1.282 1.277-1.282zm0 7.695h1.277a1.28 1.28 0 0 1 1.278 1.283v1.282a1.28 1.28 0 0 1-1.278 1.283h-1.278a1.279 1.279 0 0 1-1.277-1.283v-1.282c0-.71.57-1.283 1.277-1.283zm-11.5-7.695h1.277c.707 0 1.278.573 1.278 1.282v1.283c0 .709-.571 1.282-1.278 1.282h-1.278a1.279 1.279 0 0 1-1.277-1.282v-1.283c0-.71.57-1.282 1.277-1.282zm0 7.695h1.277a1.28 1.28 0 0 1 1.278 1.283v1.282a1.28 1.28 0 0 1-1.278 1.283h-1.278a1.279 1.279 0 0 1-1.277-1.283v-1.282c0-.71.57-1.283 1.277-1.283zm-11.5 3.848h-1.278a1.28 1.28 0 0 1-1.278-1.283v-1.282a1.28 1.28 0 0 1 1.278-1.283h1.277a1.28 1.28 0 0 1 1.278 1.283v1.282a1.28 1.28 0 0 1-1.278 1.283zm0-7.696h-1.278a1.279 1.279 0 0 1-1.278-1.282v-1.283a1.28 1.28 0 0 1 1.278-1.282h1.277a1.28 1.28 0 0 1 1.278 1.282v1.283c0 .709-.571 1.282-1.278 1.282zm0-7.695h-1.278a1.28 1.28 0 0 1-1.278-1.283V34.63a1.28 1.28 0 0 1 1.278-1.282h1.277a1.28 1.28 0 0 1 1.278 1.282v1.283a1.28 1.28 0 0 1-1.278 1.283zm0-7.696h-1.278a1.279 1.279 0 0 1-1.278-1.283v-1.282a1.28 1.28 0 0 1 1.278-1.283h1.277a1.28 1.28 0 0 1 1.278 1.283v1.282c0 .71-.571 1.283-1.278 1.283zm-6.39 23.087H7.667a1.28 1.28 0 0 1-1.278-1.283v-1.282c0-.71.571-1.283 1.278-1.283h1.277a1.28 1.28 0 0 1 1.278 1.283v1.282a1.28 1.28 0 0 1-1.278 1.283zm0-7.696H7.667a1.279 1.279 0 0 1-1.278-1.282v-1.283c0-.71.571-1.282 1.278-1.282h1.277c.707 0 1.278.573 1.278 1.282v1.283c0 .709-.57 1.282-1.278 1.282zm0-7.695H7.667a1.28 1.28 0 0 1-1.278-1.283V34.63a1.28 1.28 0 0 1 1.278-1.282h1.277a1.28 1.28 0 0 1 1.278 1.282v1.283a1.28 1.28 0 0 1-1.278 1.283zm0-7.696H7.667a1.279 1.279 0 0 1-1.278-1.283v-1.282a1.28 1.28 0 0 1 1.278-1.283h1.277a1.28 1.28 0 0 1 1.278 1.283v1.282c0 .71-.57 1.283-1.278 1.283z" fill="#FF7800"/></svg>