<svg width="59" height="59" viewBox="0 0 59 59" xmlns="http://www.w3.org/2000/svg"><g fill="#FF7800"><path d="M56.542 23.354h-4.524a23.184 23.184 0 0 0-2.249-5.433l3.196-3.171a2.457 2.457 0 0 0 0-3.479l-5.212-5.236a2.458 2.458 0 0 0-3.478 0l-3.209 3.196a23.207 23.207 0 0 0-5.42-2.25V2.459A2.458 2.458 0 0 0 33.187 0h-7.374a2.458 2.458 0 0 0-2.459 2.458v4.524a23.207 23.207 0 0 0-5.42 2.249L14.75 6.035a2.458 2.458 0 0 0-3.479 0l-5.236 5.212a2.458 2.458 0 0 0 0 3.478l3.208 3.208a23.182 23.182 0 0 0-2.261 5.421H2.458A2.458 2.458 0 0 0 0 25.813v7.375a2.458 2.458 0 0 0 2.458 2.458h4.524a23.181 23.181 0 0 0 2.249 5.433L6.035 44.25a2.458 2.458 0 0 0 0 3.478l5.212 5.212a2.457 2.457 0 0 0 3.478 0l3.208-3.208a23.207 23.207 0 0 0 5.421 2.286v4.524A2.459 2.459 0 0 0 25.813 59h7.375a2.458 2.458 0 0 0 2.458-2.458v-4.524a23.206 23.206 0 0 0 5.42-2.249l3.184 3.196a2.457 2.457 0 0 0 3.478 0l5.212-5.212a2.457 2.457 0 0 0 0-3.478l-3.208-3.209a23.182 23.182 0 0 0 2.286-5.42h4.524A2.459 2.459 0 0 0 59 33.187v-7.374a2.458 2.458 0 0 0-2.458-2.459zm0 9.834H51.06a1.23 1.23 0 0 0-1.23.958 20.71 20.71 0 0 1-2.655 6.416 1.23 1.23 0 0 0 .172 1.525l3.885 3.884-5.212 5.212-3.884-3.885a1.23 1.23 0 0 0-1.574-.123 20.676 20.676 0 0 1-6.465 2.68 1.229 1.229 0 0 0-.959 1.23v5.457h-7.325V51.06a1.23 1.23 0 0 0-.96-1.23 20.674 20.674 0 0 1-6.416-2.655 1.23 1.23 0 0 0-1.524.172l-3.884 3.885-5.26-5.224 3.883-3.885a1.23 1.23 0 0 0 .173-1.56 20.711 20.711 0 0 1-2.68-6.466 1.23 1.23 0 0 0-1.23-.959H2.459v-7.325H7.94a1.23 1.23 0 0 0 1.23-.96 20.711 20.711 0 0 1 2.655-6.416 1.23 1.23 0 0 0-.172-1.524L7.768 12.98l5.212-5.212 3.884 3.885a1.229 1.229 0 0 0 1.573.172 20.676 20.676 0 0 1 6.466-2.68 1.23 1.23 0 0 0 .959-1.23V2.459h7.375V7.94a1.229 1.229 0 0 0 .958 1.23 20.673 20.673 0 0 1 6.367 2.655 1.23 1.23 0 0 0 1.525-.172l3.884-3.885 5.212 5.212-3.885 3.884a1.23 1.23 0 0 0-.123 1.573 20.712 20.712 0 0 1 2.68 6.466 1.229 1.229 0 0 0 1.23.959h5.457v7.326z"/><path d="M29.5 18.438a11.062 11.062 0 1 0 0 22.124 11.062 11.062 0 0 0 0-22.124zm0 19.666a8.605 8.605 0 1 1 0-17.209 8.605 8.605 0 0 1 0 17.21z"/></g></svg>