<svg width="64" height="63" viewBox="0 0 64 63" xmlns="http://www.w3.org/2000/svg"><path fill-rule="evenodd" clip-rule="evenodd" d="M61.269 37a5.565 5.565 0 0 1 1.34 3.604 5.579 5.579 0 0 1-2.731 4.793c.823.977 1.34 2.226 1.34 3.606 0 2.047-1.104 3.816-2.732 4.793.824.976 1.34 2.224 1.34 3.605 0 3.092-2.492 5.599-5.565 5.599l-32.562-.003v-.033a7.581 7.581 0 0 1-5.53-2.767H6.956C3.114 60.197 0 52.677 0 43.4c0-9.276 3.114-16.798 6.957-16.798h11.668l10.592-15.395v-7C29.97-.36 33.391.008 33.391.008c3.078 0 4.174 1.4 4.174 1.4 4.174 4.2 4.174 11.199 4.174 11.199 0 9.25-4.174 13.998-4.174 13.998h20.87c3.073 0 5.565 2.507 5.565 5.6 0 2.046-1.103 3.818-2.731 4.795zM6.957 29.4c-1.073 0-4.174 4.814-4.174 14 0 9.185 3.1 13.998 4.174 13.998h7.76c-.078-.277-.165-.55-.211-.84-.824-4.02-1.984-10.63-1.984-15.958 0-5.66 3.065-9.655 4.174-11.2h.002-9.741zm51.478.004H31.389l4.092-4.655c.035-.04 3.475-4.177 3.475-12.135 0-.059-.075-5.924-3.358-9.226l-.163-.147c-.936-.592-2.225-.44-2.225-.44-.741 0-1.07.96-1.21 1.659v7.62L18.951 31.04l-.152.212c-1.135 1.57-3.495 4.834-3.495 9.349 0 5.199 1.207 11.876 1.945 15.5.373 2.255 2.293 3.966 4.57 4.065l32.442.035a2.794 2.794 0 0 0 2.782-2.8c0-.817-.37-1.426-.677-1.793l-2.127-2.52 2.821-1.696c.861-.516 1.375-1.41 1.375-2.388 0-.818-.37-1.43-.68-1.796l-2.125-2.524 2.824-1.692a2.77 2.77 0 0 0 1.372-2.387c0-.818-.37-1.426-.678-1.793l-2.127-2.521 2.822-1.696a2.774 2.774 0 0 0 1.374-2.39 2.794 2.794 0 0 0-2.782-2.8zM9.043 54.598a2.094 2.094 0 0 1-2.086-2.1c0-1.159.934-2.1 2.086-2.1 1.152 0 2.087.941 2.087 2.1 0 1.16-.935 2.1-2.087 2.1z" fill="#FF7800"/></svg>