<svg width="59" height="60" viewBox="0 0 59 60" xmlns="http://www.w3.org/2000/svg"><g fill="#FF7800"><path d="M12.079 59.001c-1.632 0-3.218-.32-4.715-.955a1.341 1.341 0 0 1-.427-2.181l4.74-4.74v-3.792H7.885l-4.74 4.738a1.33 1.33 0 0 1-1.203.368 1.336 1.336 0 0 1-.977-.794 12.021 12.021 0 0 1 2.574-13.24 11.97 11.97 0 0 1 8.523-3.53c1.323 0 2.617.21 3.856.628l19.578-19.581a12.016 12.016 0 0 1 2.9-12.382A11.98 11.98 0 0 1 46.92.01c1.632 0 3.218.321 4.715.955a1.341 1.341 0 0 1 .427 2.182l-4.74 4.742v3.793h3.793l4.738-4.74a1.327 1.327 0 0 1 1.204-.368c.437.085.805.383.978.794a12.021 12.021 0 0 1-2.574 13.24 11.974 11.974 0 0 1-8.523 3.53 12.01 12.01 0 0 1-3.856-.63L23.503 43.09a12.016 12.016 0 0 1-2.901 12.382A11.974 11.974 0 0 1 12.079 59zm-1.658-2.827a9.467 9.467 0 0 0 1.658.145 9.313 9.313 0 0 0 6.627-2.743 9.35 9.35 0 0 0 2.002-10.3 1.34 1.34 0 0 1 .287-1.47L41.797 21a1.34 1.34 0 0 1 1.471-.287c1.165.492 2.4.743 3.67.743a9.309 9.309 0 0 0 6.627-2.745 9.34 9.34 0 0 0 2.6-8.29l-3.548 3.549a1.34 1.34 0 0 1-.948.392h-5.687a1.34 1.34 0 0 1-1.341-1.34V7.333c0-.356.14-.697.393-.948L48.58 2.84a9.49 9.49 0 0 0-1.66-.145 9.316 9.316 0 0 0-6.628 2.743 9.353 9.353 0 0 0-2 10.3 1.34 1.34 0 0 1-.287 1.47L17.202 38.014c-.386.386-.97.5-1.47.287a9.382 9.382 0 0 0-3.67-.743 9.306 9.306 0 0 0-6.628 2.745 9.34 9.34 0 0 0-2.6 8.29l3.548-3.548a1.34 1.34 0 0 1 .948-.393h5.689c.74 0 1.34.599 1.34 1.34v5.69c0 .357-.14.697-.392.948l-3.546 3.545zM53.638 59a5.33 5.33 0 0 1-3.793-1.571L37.52 45.102a1.34 1.34 0 0 1 0-1.896l5.687-5.688a1.34 1.34 0 0 1 1.896 0L57.43 49.844a5.325 5.325 0 0 1 1.572 3.793 5.331 5.331 0 0 1-1.572 3.793A5.325 5.325 0 0 1 53.638 59zM40.366 44.154l11.376 11.378c1.012 1.013 2.778 1.014 3.792 0 .506-.506.785-1.18.785-1.895 0-.717-.279-1.391-.784-1.897L44.158 40.362l-3.792 3.792z"/><path d="M27.076 25.175l-15.298-15.3-1.896 1.896 15.298 15.3 1.896-1.896zm8.547 23.165a1.34 1.34 0 0 1-.948-2.289l11.376-11.378a1.34 1.34 0 1 1 1.896 1.896L36.571 47.947a1.337 1.337 0 0 1-.948.393z"/><path d="M8.935 14.06c-.343 0-.687-.132-.948-.393L.403 6.08a1.335 1.335 0 0 1-.393-.948c0-.356.14-.697.393-.948L4.194.393a1.34 1.34 0 0 1 1.896 0l7.584 7.586a1.338 1.338 0 0 1 0 1.896l-3.791 3.792a1.331 1.331 0 0 1-.948.393zM3.246 5.133l5.689 5.69 1.896-1.896-5.689-5.69-1.896 1.896zm39.363 35.573l-9.841-9.843-1.896 1.896 9.84 9.843 1.897-1.896z"/></g></svg>