<svg width="59" height="52" viewBox="0 0 59 52" xmlns="http://www.w3.org/2000/svg"><g fill="#FF7800"><path d="M54.083 47.048H4.917C2.205 47.048 0 44.728 0 41.876V5.172C0 2.32 2.205 0 4.917 0h49.166C56.795 0 59 2.32 59 5.172v36.704c0 2.851-2.205 5.172-4.917 5.172zM4.917 2.476c-1.356 0-2.459 1.21-2.459 2.696v36.704c0 1.486 1.103 2.695 2.459 2.695h49.166c1.356 0 2.459-1.21 2.459-2.695V5.172c0-1.486-1.103-2.696-2.459-2.696H4.917zM46.708 52H12.292c-.679 0-1.23-.555-1.23-1.238 0-.683.551-1.238 1.23-1.238h34.416c.679 0 1.23.555 1.23 1.238 0 .683-.551 1.238-1.23 1.238z"/><path d="M29.5 52c-.679 0-1.23-.555-1.23-1.238V45.81c0-.684.551-1.238 1.23-1.238.678 0 1.229.554 1.229 1.238v4.952c0 .683-.55 1.238-1.23 1.238zm0-8.667a2.467 2.467 0 0 0 2.459-2.476 2.468 2.468 0 0 0-2.459-2.476 2.467 2.467 0 0 0-2.458 2.476c0 1.368 1.1 2.476 2.458 2.476zm28.271-8.666H1.23v2.476h56.542v-2.476z"/></g></svg>