<svg width="18" height="18" id="Слой_1" xmlns="http://www.w3.org/2000/svg" xmlns:xlink="http://www.w3.org/1999/xlink" viewBox="0 0 250 250"><style>.st0{clip-path:url(#SVGID_2_);fill:#034ea1}.st1{fill:#ffca05}</style><defs><path id="SVGID_1_" d="M0 125c0 69 56 125 125 125s125-56 125-125S194 0 125 0 0 56 0 125"/></defs><use xlink:href="#SVGID_1_" overflow="visible" fill="#034ea1"/><clipPath id="SVGID_2_"><use xlink:href="#SVGID_1_" overflow="visible"/></clipPath><path class="st0" d="M0 0h250v250H0z"/><path class="st1" d="M21.4 124.9C21.4 67.7 67.8 21.3 125 21.3c57.2 0 103.6 46.4 103.6 103.6 0 57.2-46.4 103.6-103.6 103.6-11.3 0-22.2-1.8-32.4-5.1 7.4-42.8 34.4-77.6 70.1-92.4 4.2 4.9 10.5 8 17.4 8 12.7 0 23-10.3 23-23s-10.3-23-23-23-23 10.3-23 23c-45.5 13.7-82.4 45.5-101.2 86.3-6-5.3-11.3-11.3-15.8-17.8 1.1-39.8 20.8-74.6 50.2-95.1 4.2 4.8 10.4 7.7 17.2 7.7 12.7 0 23-10.3 23-23s-10.3-23-23-23-23 10.3-23 23c0 .7 0 1.4.1 2-27.4 9.6-49.9 28.7-63.1 53-.1-1.5-.1-2.8-.1-4.2"/></svg>