<svg width="18" height="18" id="Слой_1" xmlns="http://www.w3.org/2000/svg" viewBox="0 0 250 250"><style>.st0{fill-rule:evenodd;clip-rule:evenodd;fill:#fff}.st1{display:none}.st1,.st2{fill-rule:evenodd;clip-rule:evenodd;fill:#e40520}</style><path class="st0" d="M27 29h192.8v192.8H27V29z"/><path class="st1" d="M46.5 160.4l-5.1 14.7-5.2-14.7h-6.4l7.9 21.5h7l8-21.5h-6.2zm38.6 10.7c0-3.2 2.6-5.8 5.8-5.8 3.2 0 5.8 2.6 5.8 5.8s-2.6 5.8-5.8 5.8c-3.2 0-5.8-2.6-5.8-5.8zm11.3-19.5v10.5c-1.8-1.3-3.9-2.1-6.3-2.1-5.9 0-10.7 5-10.7 11.1s4.8 11.1 10.7 11.1c2.3 0 4.5-.8 6.3-2.1v1.8h5.5v-30.3h-5.5zm14.9 19.5c0-3.2 2.6-5.8 5.8-5.8 3.2 0 5.8 2.6 5.8 5.8s-2.6 5.8-5.8 5.8c-3.2 0-5.8-2.6-5.8-5.8zm11.4-10.7v1.8c-1.8-1.3-3.9-2.1-6.3-2.1-5.9 0-10.7 5-10.7 11.1s4.8 11.1 10.7 11.1c2.3 0 4.5-.8 6.3-2.1v1.8h5.5v-21.5h-5.5v-.1zm20.6 0H140v-1.3c0-1.4 0-3.1 2.2-3.1.6 0 1.1.1 1.1.1v-5h-1.5c-5.1.2-7.3 1.9-7.3 7v2.3H132v4.9h2.5v16.5h5.6v-16.5h3.3v-4.9h-.1zm33.4 1.9c1.6-1.4 3.9-2.3 6.3-2.3 5.1 0 8 3.2 8 7.5v14.4h-5.7v-12.6c0-3.2-2.2-4.1-3.9-4.1-1.6 0-4.7.9-4.5 4.7v11.9h-5.7v-21.5h5.5v2zm23.9 10.5c.3 2.7 2.5 4.7 5.3 4.7 2.2 0 3.6-.9 4.5-2.4h6c-1 3.3-4.7 7.1-10.3 7.1-6.7 0-11.4-5-11.4-11.1s5-11.1 11.4-11.1c6.3 0 10.8 5.4 10.8 11.1 0 1.2-.1 1.7-.1 1.7h-16.2zm10.3-4.1c-.5-2.4-2.5-3.8-5-3.8-2.6 0-4.6 1.5-5.1 3.8h10.1zm-141.9-8c-2 .4-3.6 2.3-3.6 4.4v.2c3.2.7 4.9 2.9 4.9 5.7 0 3.2-2.6 5.8-5.9 5.8s-6.2-2.7-6.2-6.7c0-4.9 4.2-9.4 10.1-9.6h.4c-1.3-.5-2.7-.8-4.2-.8-6.4 0-11.5 5-11.5 11.2 0 6.2 5.2 11.2 11.5 11.2 6.4 0 11.5-5 11.5-11.2.1-4.5-2.9-8.5-7-10.2zm87.1-.8c-6.4 0-11.6 5-11.6 11.2 0 4.6 2.9 8.6 7.1 10.3 2-.4 3.6-2.3 3.6-4.4v-.1c-3.2-.7-4.9-2.9-4.9-5.7 0-3.2 2.6-5.8 5.9-5.8 3.2 0 6.2 2.7 6.2 6.7 0 4.9-4.2 9.4-10.1 9.6h-.4c1.3.5 2.7.8 4.2.8 6.4 0 11.5-5 11.5-11.2 0-6.4-5.2-11.4-11.5-11.4z"/><path class="st2" d="M172.6 14.9c-21.9 4.8-38.4 24.4-38.4 47.9 0 .5.1 1.1.1 1.6 34.6 7.4 52 30.9 52 61.9 0 34.8-28.3 63-62.8 63s-66.8-29-66.8-72.1c0-52.6 44.7-101.9 108.4-103.4 1.1 0 3 0 4.8.1-14-5.4-29.3-8.3-45.2-8.3C56.4 5.6 1 59.6 1 126.3S56.4 247 124.8 247s123.8-54 123.8-120.7c0-50.2-31.4-93.2-76-111.4z"/></svg>