<svg width="66" height="41" viewBox="0 0 66 41" xmlns="http://www.w3.org/2000/svg"><g fill="#FF7800"><path d="M61.875 0H4.125a4.138 4.138 0 0 0-2.917 1.2A4.087 4.087 0 0 0 0 4.1v32.8c0 1.087.435 2.13 1.208 2.9A4.138 4.138 0 0 0 4.125 41h57.75a4.138 4.138 0 0 0 2.917-1.2A4.087 4.087 0 0 0 66 36.9V4.1c0-1.087-.435-2.13-1.208-2.9A4.138 4.138 0 0 0 61.875 0zm1.375 36.9c0 .363-.145.71-.403.966a1.38 1.38 0 0 1-.972.4H4.125a1.38 1.38 0 0 1-.972-.4 1.362 1.362 0 0 1-.403-.966V4.1a1.375 1.375 0 0 1 1.375-1.366h57.75A1.375 1.375 0 0 1 63.25 4.1v32.8z"/><path d="M57.75 13.667a5.517 5.517 0 0 1-3.89-1.602A5.45 5.45 0 0 1 52.25 8.2c0-.363-.145-.71-.403-.966a1.38 1.38 0 0 0-.972-.4h-35.75a1.38 1.38 0 0 0-.972.4 1.362 1.362 0 0 0-.403.966c0 1.45-.58 2.84-1.61 3.865a5.517 5.517 0 0 1-3.89 1.602 1.38 1.38 0 0 0-.972.4 1.362 1.362 0 0 0-.403.966v10.934c0 .362.145.71.403.966s.607.4.972.4a5.52 5.52 0 0 1 3.89 1.601 5.45 5.45 0 0 1 1.61 3.866 1.375 1.375 0 0 0 1.375 1.366h35.75A1.375 1.375 0 0 0 52.25 32.8c0-1.45.58-2.84 1.61-3.866a5.517 5.517 0 0 1 3.89-1.6c.365 0 .714-.145.972-.401s.403-.604.403-.966V15.033c0-.362-.145-.71-.403-.966a1.38 1.38 0 0 0-.972-.4zM16.39 31.433a8.183 8.183 0 0 0-2.302-4.436 8.267 8.267 0 0 0-4.463-2.288v-8.418a8.267 8.267 0 0 0 4.463-2.288 8.183 8.183 0 0 0 2.302-4.436h8.36a13.687 13.687 0 0 0-4.048 4.821 13.6 13.6 0 0 0 0 12.224 13.687 13.687 0 0 0 4.048 4.821h-8.36zm16.61 0c-2.176 0-4.302-.641-6.111-1.842a10.949 10.949 0 0 1-4.052-4.907 10.872 10.872 0 0 1-.626-6.317 10.912 10.912 0 0 1 3.01-5.598 11.021 11.021 0 0 1 5.633-2.992 11.062 11.062 0 0 1 6.355.622 10.986 10.986 0 0 1 4.937 4.027A10.886 10.886 0 0 1 44 20.5a10.9 10.9 0 0 1-3.222 7.73A11.034 11.034 0 0 1 33 31.434zm23.375-6.724a8.267 8.267 0 0 0-4.463 2.288 8.183 8.183 0 0 0-2.302 4.436h-8.36a13.687 13.687 0 0 0 4.048-4.821 13.6 13.6 0 0 0 0-12.224 13.687 13.687 0 0 0-4.048-4.821h8.401a8.182 8.182 0 0 0 2.285 4.425 8.267 8.267 0 0 0 4.439 2.299v8.418zM9.625 6.833h-2.75v2.734h2.75V6.833zm49.5 0h-2.75v2.734h2.75V6.833zm0 24.6h-2.75v2.734h2.75v-2.734zm-49.5 0h-2.75v2.734h2.75v-2.734z"/></g></svg>