<svg width="74" height="43" viewBox="0 0 74 43" xmlns="http://www.w3.org/2000/svg"><g fill="#FF7800"><path d="M73.827 21.538C65.097 11.518 53.033 0 37 0c-6.475 0-12.41 1.824-18.673 5.72C13.047 9.023 7.63 13.669.193 21.309L0 21.5l1.291 1.325C11.91 33.65 21.082 43 37 43c7.034 0 13.856-2.284 20.851-6.987 5.955-4.013 11.023-9.1 15.09-13.208L74 21.75l-.173-.212zM37 3.071c6.379 0 12.507 1.824 18.731 5.875 4.606 2.994 9.135 7.045 14.203 12.688C62.554 29.064 51.472 39.93 37 39.93c-6.59 0-12.372-1.613-18.153-5.414-5.3-3.474-10.079-8.312-14.685-13.015C15.553 10.04 25.053 3.071 37 3.071z"/><path d="M37 36.857c8.5 0 15.417-6.891 15.417-15.357S45.5 6.143 37.001 6.143 21.584 13.034 21.584 21.5s6.918 15.357 15.417 15.357zm0-27.585c6.784 0 12.334 5.49 12.334 12.228 0 6.738-5.55 12.228-12.333 12.228-6.784 0-12.314-5.49-12.314-12.228 0-6.738 5.53-12.228 12.314-12.228z"/><path d="M43.167 21.5c0 3.36-2.775 6.143-6.128 6.143s-6.205-2.918-6.205-6.277c0-3.36 3.044-6.009 6.166-6.009v-3.071c-5.107 0-9.23 4.146-9.23 9.253 0 5.106 4.143 9.233 9.23 9.233 5.088 0 9.25-4.146 9.25-9.233V21.5h-3.083z"/></g></svg>