<svg width="59" height="59" viewBox="0 0 59 59" xmlns="http://www.w3.org/2000/svg"><g fill="#FF7800"><path d="M29.5 59C13.234 59 0 45.766 0 29.5S13.234 0 29.5 0 59 13.234 59 29.5 45.766 59 29.5 59zm0-56.542C14.589 2.458 2.458 14.59 2.458 29.5c0 14.911 12.131 27.042 27.042 27.042 14.911 0 27.042-12.131 27.042-27.042 0-14.911-12.131-27.042-27.042-27.042z"/><path d="M29.5 51.625c-10.844 0-19.667-8.823-19.667-19.667a1.229 1.229 0 1 1 2.458 0c0 9.49 7.72 17.209 17.209 17.209s17.208-7.72 17.208-17.209a1.229 1.229 0 1 1 2.458 0c0 10.844-8.823 19.667-19.666 19.667zm-6.145-25.812a1.23 1.23 0 0 1-1.23-1.23 3.692 3.692 0 0 0-3.687-3.687 3.692 3.692 0 0 0-3.688 3.687 1.229 1.229 0 1 1-2.458 0 6.153 6.153 0 0 1 6.146-6.145 6.153 6.153 0 0 1 6.146 6.145c0 .68-.551 1.23-1.23 1.23zm22.125 0a1.23 1.23 0 0 1-1.23-1.23 3.692 3.692 0 0 0-3.687-3.687 3.692 3.692 0 0 0-3.688 3.687 1.229 1.229 0 1 1-2.458 0 6.153 6.153 0 0 1 6.146-6.145 6.153 6.153 0 0 1 6.146 6.145c0 .68-.551 1.23-1.23 1.23z"/></g></svg>