<svg width="42" height="62" viewBox="0 0 42 62" xmlns="http://www.w3.org/2000/svg"><path fill-rule="evenodd" clip-rule="evenodd" d="M39.191 26.052v5.663l-4.875 2.833-2.811 4.905h-.715l.002.006v21.132c0 .006-.003.01-.003.016.005.358-.125.718-.396.992-.271.273-.63.404-.986.398-.005 0-.009.003-.014.003-.448 0-.83-.225-1.084-.556L21 54.083l-7.309 7.36a1.36 1.36 0 0 1-1.084.557c-.005 0-.01-.003-.014-.003a1.352 1.352 0 0 1-.986-.398 1.377 1.377 0 0 1-.396-.992l-.002-.016V39.454h-.708l-2.815-4.905-4.873-2.833v-5.663L0 21.146l2.813-4.907v-5.667l4.873-2.836 2.815-4.901h5.63L20.999 0l4.873 2.835h5.63l2.812 4.9 4.874 2.837v5.666L42 21.146l-2.809 4.906zM14.006 39.459v17.778l5.861-5.903c.045-.066.074-.142.133-.203a1.36 1.36 0 0 1 1-.396c.36-.008.725.12 1 .396.059.06.087.137.133.203l5.86 5.903V39.459l.002-.006h-2.122L21 42.29l-4.868-2.836h-2.127l.001.006zm22.38-22.467v-4.795l-4.123-2.399-2.376-4.146h-4.765l-4.12-2.396-4.116 2.396h-4.764l-2.38 4.145-4.124 2.399v4.796l-2.38 4.154 2.38 4.152v4.79l4.125 2.398 2.379 4.149h4.763L21 39.03l4.12-2.396h4.763l2.376-4.15 4.125-2.397v-4.789l2.378-4.153-2.376-4.154z" fill="#FF7800"/></svg>