<svg width="18" height="18" id="Слой_1" xmlns="http://www.w3.org/2000/svg" viewBox="0 0 250 250"><style>.st0{display:none;fill-rule:evenodd;clip-rule:evenodd}.st0,.st1{fill:#0095db}.st2{fill:#fff}.st3,.st4{fill-rule:evenodd;clip-rule:evenodd;fill:#fc0}.st4{fill:#fff}</style><path class="st0" d="M0 1h250v250H0V1z"/><circle class="st1" cx="125" cy="125" r="124"/><path class="st2" d="M41.9 211.1V188h6.8v7.2l5.1-7.2h7.9l-8 10.4 9.8 12.7h-8.4l-6.4-9.4v9.4h-6.8zM65.2 188h6.2v13.4L80 188h6.7v23.1h-6.6v-13.3l-8.5 13.3h-6.8V188h.4zm26.9 23.1V188h6.8v23.1h-6.8zm12.1-23.1h11.2c2.1 0 3.6.4 4.6 1.1 1 .7 1.6 1.6 1.9 2.5.2.4.3.8.3 1.2.1.4.1.7.1 1.1 0 1.2-.4 2.2-1.1 3-.7.8-1.6 1.4-2.5 1.8v.1c.3.1.6.2 1 .3.4.1.8.3 1.2.6.7.4 1.3 1 1.9 1.8.6.8.9 1.9.9 3.2v.8c-.2 1.4-.8 2.7-2 3.9-1.2 1.2-3 1.8-5.6 1.8H104V188h.2zm6.5 18.5h3.3c.3 0 .6-.1.9-.1.5-.1.9-.3 1.3-.7.4-.3.6-.9.6-1.6 0-.7-.2-1.3-.6-1.6-.4-.3-.8-.5-1.3-.6-.3 0-.5-.1-.8-.1h-3.4v4.7zm0-9.4h2.4c.9 0 1.6-.1 2-.4.4-.3.7-.6.8-1 0-.1.1-.3.1-.4v-.3c0-.6-.2-1.1-.6-1.6-.4-.5-1.2-.7-2.3-.7h-2.4v4.4zm42.9 14v-16.8h-6.4V188h19.7v6.3h-6.4v16.8h-6.9zm10.2 0L172 188h8.2l8.2 23.1h-7.3l-1.3-4h-7.5l-1.3 4h-7.2zm12.3-17.2l-2.5 8.2h5l-2.5-8.2zm13.5 17.2V188h10c2.5 0 4.3.5 5.5 1.6 1.2 1.1 2 2.2 2.5 3.5.2.5.3.9.3 1.4.1.5.1 1.4.1 1.8 0 .4 0 .8-.1 1.3s-.2.9-.3 1.4c-.4 1.3-1.2 2.5-2.4 3.5-1.2 1.1-3.1 1.6-5.6 1.6h-3.3v7.1h-6.7v-.1zm6.8-18v5.9h1.5c.9 0 1.6-.2 2.1-.5.4-.3.7-.6.9-1 .1-.2.1-.5.2-.7V195c-.1-.5-.4-.9-.8-1.3s-1.2-.6-2.3-.6h-1.6zm-59 18.7h-.6c-3.8-.1-6.7-1.3-8.7-3.7-1.8-2-2.8-4.3-3.1-6.9v-2.6c.3-2.6 1.3-4.9 3.1-6.9 2-2.3 4.9-3.5 8.7-3.7h.9c.9 0 1.8.1 2.6.2 2.7.5 4.6 1.8 6.2 3.7.1.1.2.3.3.4l-4.7 3.8c-.1-.1-.2-.3-.3-.4-.9-1-1.8-1.6-2.8-1.9-.2-.1-.5-.1-.7-.2h-.4c-.2 0-.5 0-.7.1-.2 0-.4.1-.5.1-1 .3-1.9 1-2.8 2-.8 1-1.3 2.5-1.3 4.4s.4 3.4 1.3 4.4c.8 1 1.8 1.7 2.8 2 .2.1.4.1.5.1.2 0 .4.1.6.1h.4c.2 0 .5-.1.7-.2 1-.3 2-.9 2.8-1.9.1-.1.2-.2.3-.4l4.7 3.8c-.1.1-.2.3-.3.4-1.6 1.9-3.5 3.2-6.1 3.7-.8.1-1.7.2-2.6.2l-.3-.6z"/><path class="st3" d="M87.9 173.1c3.3 0 6.1 2.7 6.1 6.1 0 3.3-2.7 6.1-6.1 6.1-3.3 0-6.1-2.7-6.1-6.1 0-3.4 2.7-6.1 6.1-6.1zm15.1 0c3.3 0 6.1 2.7 6.1 6.1 0 3.3-2.7 6.1-6.1 6.1-3.3 0-6.1-2.7-6.1-6.1.1-3.4 2.8-6.1 6.1-6.1z"/><path class="st4" d="M125.4 40.2c4.6 0 8.4 3.8 8.4 8.4v31.1c0 4.6-3.8 8.4-8.4 8.4-4.6 0-8.4-3.8-8.4-8.4V48.6c.1-4.6 3.8-8.4 8.4-8.4zM62.3 86.1c1.4-4.4 6.2-6.8 10.5-5.4l29.6 9.6c4.4 1.4 6.8 6.2 5.4 10.5-1.4 4.4-6.2 6.8-10.5 5.4l-29.6-9.6c-4.4-1.4-6.8-6.1-5.4-10.5zm24.1 74.2c-3.7-2.7-4.6-8-1.8-11.7l18.3-25.1c2.7-3.7 8-4.6 11.7-1.9 3.7 2.7 4.6 8 1.9 11.7l-18.3 25.1c-2.8 3.8-8.1 4.6-11.8 1.9zm78.1 0c-3.7 2.7-9 1.9-11.7-1.9l-18.3-25.1c-2.7-3.7-1.9-9 1.9-11.7 3.7-2.7 9-1.9 11.7 1.8l18.3 25.1c2.6 3.9 1.8 9.1-1.9 11.8zm24.1-74.2c1.4 4.4-1 9.1-5.4 10.5l-29.6 9.6c-4.4 1.4-9.1-1-10.5-5.4-1.4-4.4 1-9.1 5.4-10.5l29.6-9.6c4.3-1.4 9.1 1 10.5 5.4z"/></svg>