<?xml version="1.0" encoding="utf-8"?>
<!-- Generator: Adobe Illustrator 16.0.0, SVG Export Plug-In . SVG Version: 6.00 Build 0)  -->
<!DOCTYPE svg PUBLIC "-//W3C//DTD SVG 1.1//EN" "http://www.w3.org/Graphics/SVG/1.1/DTD/svg11.dtd">
<svg version="1.1" id="Layer_1" xmlns="http://www.w3.org/2000/svg" xmlns:xlink="http://www.w3.org/1999/xlink" x="0px" y="0px"
	 width="162px" height="52px" viewBox="0 0 162 52" enable-background="new 0 0 162 52" xml:space="preserve">
<g id="Слой_2">
	<g id="Слой_1-2">
		<path fill="#2193D2" d="M154.961,27.128c0.724,0,1.521,0.089,2.167,0.724c0.406,0.383,0.638,0.915,0.641,1.474
			c0,1.294-1.142,2.224-2.528,2.224h-9.043v-4.421H154.961z M146.386,40.89v-6.208h7.085l4.42,6.208h4.086l-4.344-6.238
			c2.224-0.907,3.856-3.152,3.856-5.31c0.001-1.329-0.543-2.599-1.504-3.515c-1.165-1.142-2.864-1.834-5.446-1.834h-11.84v16.895
			L146.386,40.89z"/>
		<polygon fill="#2193D2" points="99.13,27.204 106.655,27.204 106.655,40.89 110.156,40.89 110.156,27.204 117.847,27.204 
			117.847,23.999 99.13,23.999 99.13,27.204 		"/>
		<path fill="#2193D2" d="M91.244,27.381l3.408,7.018h-6.799l3.388-7.018H91.244z M80.642,40.89h3.913l1.639-3.57h9.913l1.854,3.57
			h4.082l-8.891-16.891h-4.075L80.642,40.89z"/>
		<polygon fill="#F47821" points="75.558,23.999 69.939,30.009 64.138,23.999 59.834,23.999 67.619,32.226 59.323,40.89 
			64.191,40.89 70.008,34.761 75.79,40.89 80.416,40.89 72.537,32.096 80.177,23.999 75.558,23.999 		"/>
		<polygon fill="#F47821" points="57.441,40.89 57.441,23.999 54.109,23.999 54.109,40.89 57.441,40.89 		"/>
		<polygon fill="#F47821" points="38.734,40.89 38.734,33.801 48.086,33.801 48.086,30.619 38.734,30.619 38.734,27.204 
			51.969,27.204 51.969,23.999 34.762,23.999 34.762,40.89 38.734,40.89 		"/>
		<path fill="#2193D2" d="M132.976,24.224c4.9,2.157,7.123,7.877,4.967,12.777c-2.157,4.901-7.878,7.124-12.777,4.968
			c-4.9-2.157-7.124-7.878-4.967-12.778c1.003-2.279,2.846-4.085,5.145-5.042l0.093,0.63l0.306,2.528
			c-2.147,1.162-3.285,3.083-3.319,5.699c-0.056,3.849,2.686,6.683,6.535,6.739s6.684-2.685,6.739-6.534
			c0.04-2.655-1.07-4.646-3.229-5.854l0.382-2.459l0.12-0.664L132.976,24.224z"/>
		<polygon fill="#2193D2" points="127.729,21.921 130.168,21.921 130.168,32.275 127.729,32.275 127.729,21.921 		"/>
		<path fill="#2193D2" d="M31.234,40.87c-4.958-8.769-8.721-17.608-8.584-27.106c0-0.773,0.305-1.403,1.327-2.654
			c3.235-3.906,1.56-10.627-3.334-10.627l0.669,4.676l-2.316,2.167l-2.881-1.464l-0.594-4.891c-4.819,1.335-5.31,9.265,0.398,12.046
			C20.068,28.645,25.348,36.778,31.234,40.87z"/>
		<path fill="#F47821" d="M40.194,48.012H5.35c-2.951-0.009-5.34-2.398-5.35-5.35V20.517c0.003-2.956,2.397-5.352,5.353-5.359h7.965
			c3.415,14.98,11.499,27.784,26.88,32.854H40.194z"/>
		<path fill="#F47821" d="M13.274,49.91h17.124c0.577,0.001,1.043,0.469,1.046,1.045l0,0c0,0.574-0.472,1.045-1.378,1.045H12.942
			c-0.243,0-0.713-0.471-0.713-1.045l0,0C12.23,50.379,12.698,49.911,13.274,49.91z"/>
	</g>
</g>
</svg>
